<svg aria-hidden="true" style="position:absolute;width:0;height:0" xmlns="http://www.w3.org/2000/svg" overflow="hidden"><defs><symbol id="icon-Linkedin" viewBox="0 0 32 32"><path d="M27.312 0H4.688A4.693 4.693 0 000 4.688v22.624A4.693 4.693 0 004.688 32h22.624A4.693 4.693 0 0032 27.312V4.688A4.693 4.693 0 0027.312 0zm-16 25.376H7.563V12.249h3.749v13.127zm0-15.001H7.563V6.624h3.749v3.75zm13.125 15h-3.749v-7.5A1.877 1.877 0 0018.813 16a1.877 1.877 0 00-1.875 1.875v7.5h-3.75V12.25h3.75v.707c.981-.305 1.621-.707 2.813-.707 2.543.003 4.687 2.285 4.687 4.981v8.144z"/></symbol><symbol id="icon-menu" viewBox="0 0 40 40"><path fill-rule="evenodd" clip-rule="evenodd" d="M8 14.667V12h24v2.667H8zm0 6.666h24v-2.666H8v2.666zM8 28h24v-2.667H8V28z"/><symbol id="icon-close" viewBox="0 0 40 40"><path d="M29.667 12.88L27.787 11l-7.454 7.453L12.88 11 11 12.88l7.453 7.453L11 27.787l1.88 1.88 7.453-7.454 7.454 7.454 1.88-1.88-7.454-7.454 7.454-7.453z"/><symbol id="icon-Twitter" viewBox="0 0 39 32"><path d="M39.385 3.789a16.38 16.38 0 01-4.568 1.266l-.084.009A8.07 8.07 0 0038.269.658l.016-.057a15.87 15.87 0 01-5.017 1.937l-.103.017A8.072 8.072 0 0027.265 0c-4.469 0-8.068 3.629-8.068 8.077 0 .64.053 1.254.187 1.841-6.711-.329-12.651-3.545-16.641-8.446a8.033 8.033 0 00-1.105 4.08v.001a8.075 8.075 0 003.558 6.691l.028.018a7.94 7.94 0 01-3.688-1.014l.04.021v.089c0 3.923 2.799 7.182 6.469 7.933a7.894 7.894 0 01-2.057.267h-.063.003c-.517 0-1.039-.03-1.529-.139 1.045 3.198 4.015 5.549 7.545 5.626a16.116 16.116 0 01-9.993 3.443h-.018.001c-.662 0-1.298-.03-1.933-.111C3.578 30.683 7.816 32 12.387 32c14.859 0 22.981-12.307 22.981-22.976 0-.357-.013-.702-.03-1.043 1.603-1.138 2.949-2.558 4.047-4.192z"/></symbol><symbol id="icon-insta" viewBox="0 0 32 32"><path d="M23.168 0H8.832C3.962 0 0 3.962 0 8.831v14.337C0 28.038 3.962 32 8.831 32h14.337C28.038 32 32 28.038 32 23.169V8.832C32 3.962 28.038 0 23.168 0zm5.993 23.169a5.998 5.998 0 01-5.991 5.991H8.833a5.997 5.997 0 01-5.991-5.991V8.832a5.998 5.998 0 015.991-5.991h14.336a5.998 5.998 0 015.991 5.991v14.336z"/><path d="M16 7.755c-4.546 0-8.245 3.699-8.245 8.245 0 4.547 3.699 8.245 8.245 8.245s8.245-3.698 8.245-8.245c0-4.546-3.699-8.245-8.245-8.245zm0 13.651A5.413 5.413 0 0110.594 16 5.413 5.413 0 0116 10.594 5.412 5.412 0 0121.407 16 5.412 5.412 0 0116 21.406zm8.592-16.059a2.088 2.088 0 00-2.083 2.082c0 .547.224 1.085.612 1.472.386.387.924.61 1.471.61a2.094 2.094 0 001.472-.609 2.084 2.084 0 000-2.945 2.083 2.083 0 00-1.472-.61z"/></symbol><symbol id="icon-fb" viewBox="0 0 32 32"><path d="M27.312 0H4.688A4.693 4.693 0 000 4.688v22.624A4.693 4.693 0 004.688 32h9.437V20.688h-3.749v-5.627h3.749v-3.812a5.633 5.633 0 015.625-5.626h5.688v5.626h-5.687v3.812h5.687l-.939 5.626H19.75V32h7.563A4.694 4.694 0 0032 27.312V4.688A4.693 4.693 0 0027.312 0z"/></symbol></defs></svg>